<svg id="svg" version="1.1" width="400" height="400" xmlns="http://www.w3.org/2000/svg" xmlns:xlink="http://www.w3.org/1999/xlink" style="display: block;"><g id="svgg"><path id="path0" d="" stroke="none" fill="#ffffff" fill-rule="evenodd"></path><path id="path1" d="" stroke="none" fill="#ffffff" fill-rule="evenodd"></path><path id="path2" d="" stroke="none" fill="#ffffff" fill-rule="evenodd"></path><path id="path3" d="M79.600 1.757 C 79.600 2.905,79.403 3.590,79.033 3.732 C 78.631 3.886,78.471 4.616,78.486 6.229 C 78.501 7.937,78.342 8.600,77.853 8.874 C 77.365 9.147,77.200 9.831,77.200 11.577 C 77.200 13.286,77.039 13.976,76.600 14.145 C 76.209 14.295,76.000 14.916,76.000 15.928 C 76.000 17.629,75.305 20.000,74.807 20.000 C 74.634 20.000,74.492 20.932,74.492 22.072 C 74.492 23.517,74.297 24.286,73.846 24.616 C 73.373 24.962,73.200 25.745,73.200 27.544 C 73.200 29.297,73.051 30.000,72.678 30.000 C 72.202 30.000,71.974 31.166,71.839 34.300 C 71.817 34.795,71.587 35.200,71.327 35.200 C 70.723 35.200,70.456 36.153,70.452 38.329 C 70.451 39.280,70.213 40.343,69.925 40.691 C 69.388 41.337,69.337 41.619,69.250 44.400 C 69.215 45.533,69.025 46.000,68.600 46.000 C 68.165 46.000,68.000 46.448,68.000 47.629 C 68.000 48.543,67.737 49.520,67.400 49.857 C 67.054 50.203,66.800 51.181,66.800 52.167 C 66.800 53.318,66.531 54.187,65.979 54.824 C 65.527 55.345,65.186 56.228,65.221 56.786 C 65.367 59.116,65.183 60.397,64.716 60.300 C 64.392 60.233,64.185 60.992,64.090 62.600 C 64.011 63.927,63.717 65.180,63.432 65.402 C 63.148 65.623,62.828 66.855,62.722 68.139 C 62.607 69.516,62.301 70.614,61.973 70.817 C 61.622 71.034,61.389 72.000,61.339 73.447 C 61.284 75.052,61.072 75.840,60.630 76.087 C 60.169 76.345,60.000 77.066,60.000 78.777 C 60.000 80.486,59.839 81.176,59.400 81.345 C 58.964 81.512,58.800 82.196,58.800 83.843 C 58.800 85.348,58.606 86.261,58.223 86.556 C 57.878 86.821,57.573 87.967,57.465 89.400 C 57.354 90.865,57.111 91.761,56.842 91.700 C 56.599 91.645,56.379 91.825,56.354 92.100 C 56.328 92.375,56.266 92.780,56.215 93.000 C 56.164 93.220,56.094 93.985,56.061 94.700 C 56.024 95.478,55.807 95.960,55.518 95.900 C 54.965 95.785,54.918 96.003,54.850 99.000 C 54.815 100.526,54.647 101.169,54.300 101.100 C 53.961 101.032,53.760 101.697,53.677 103.171 C 53.600 104.513,53.257 105.759,52.777 106.433 C 52.251 107.172,52.000 108.185,52.000 109.574 C 52.000 111.028,51.825 111.692,51.400 111.855 C 50.960 112.024,50.800 112.718,50.800 114.455 C 50.800 116.193,50.640 116.887,50.200 117.055 C 49.769 117.221,49.600 117.896,49.600 119.460 C 49.600 121.066,49.395 121.853,48.816 122.475 C 48.270 123.061,48.042 123.846,48.066 125.056 C 48.086 126.013,47.854 127.094,47.551 127.459 C 46.988 128.137,46.937 128.410,46.850 131.200 C 46.819 132.195,46.622 132.762,46.330 132.700 C 46.043 132.639,45.795 133.300,45.694 134.400 C 45.602 135.390,45.274 136.344,44.964 136.520 C 44.604 136.724,44.399 137.521,44.399 138.720 C 44.398 139.904,44.096 141.094,43.584 141.933 C 43.053 142.805,42.804 143.825,42.867 144.879 C 42.935 146.039,42.763 146.638,42.254 147.010 C 41.865 147.294,41.559 147.634,41.573 147.764 C 41.820 149.951,41.517 152.400,41.000 152.400 C 40.670 152.400,40.421 152.535,40.447 152.700 C 40.721 154.431,40.319 157.600,39.827 157.600 C 39.098 157.600,38.804 158.562,38.894 160.646 C 38.940 161.705,38.736 162.521,38.321 162.936 C 37.899 163.358,37.671 164.299,37.661 165.662 C 37.650 167.117,37.457 167.848,37.022 168.091 C 36.570 168.345,36.400 169.078,36.400 170.777 C 36.400 172.371,36.228 173.180,35.860 173.322 C 35.537 173.446,35.225 174.443,35.085 175.796 C 34.957 177.042,34.558 178.509,34.200 179.056 C 33.842 179.602,33.581 180.443,33.619 180.925 C 33.736 182.397,33.621 182.804,33.116 182.700 C 32.792 182.633,32.582 183.396,32.481 185.000 C 32.399 186.320,32.077 187.684,31.766 188.031 C 31.439 188.396,31.200 189.501,31.200 190.643 C 31.200 192.127,31.000 192.793,30.400 193.307 C 29.766 193.850,29.618 194.417,29.688 196.031 C 29.755 197.573,29.617 198.159,29.117 198.438 C 28.624 198.714,28.457 199.385,28.457 201.088 C 28.457 202.700,28.273 203.504,27.829 203.829 C 27.396 204.145,27.200 204.939,27.200 206.373 C 27.200 207.692,26.980 208.677,26.600 209.057 C 26.270 209.387,25.999 210.139,25.998 210.729 C 25.995 212.089,25.252 214.800,24.881 214.801 C 24.727 214.801,24.556 215.746,24.503 216.901 C 24.449 218.061,24.170 219.179,23.879 219.400 C 23.586 219.623,23.304 220.767,23.242 221.981 C 23.182 223.180,22.877 224.525,22.566 224.970 C 22.255 225.414,21.999 226.143,21.999 226.589 C 21.998 227.035,21.626 228.009,21.172 228.753 C 20.704 229.521,20.390 230.644,20.444 231.353 C 20.560 232.849,20.101 234.400,19.542 234.400 C 19.319 234.400,19.178 234.985,19.227 235.700 C 19.398 238.187,19.217 239.200,18.600 239.200 C 18.128 239.200,18.000 239.756,18.000 241.800 C 18.000 243.728,17.859 244.400,17.455 244.400 C 17.070 244.400,16.846 245.186,16.696 247.061 C 16.547 248.922,16.289 249.830,15.841 250.081 C 15.365 250.347,15.200 251.052,15.200 252.820 C 15.200 254.465,15.051 255.169,14.718 255.100 C 14.165 254.985,14.118 255.203,14.050 258.200 C 14.014 259.764,13.843 260.400,13.456 260.400 C 13.090 260.400,12.837 261.129,12.682 262.631 C 12.555 263.858,12.185 265.269,11.859 265.766 C 11.533 266.263,11.267 267.546,11.267 268.616 C 11.267 269.930,11.061 270.712,10.633 271.025 C 10.277 271.286,9.994 272.081,9.987 272.844 C 9.980 273.590,9.710 274.549,9.387 274.976 C 9.062 275.407,8.800 276.602,8.800 277.657 C 8.800 278.889,8.599 279.673,8.229 279.880 C 7.855 280.090,7.617 281.052,7.536 282.678 C 7.439 284.647,7.269 285.193,6.707 285.340 C 6.130 285.491,6.000 285.967,6.000 287.929 C 6.000 289.390,5.819 290.394,5.538 290.487 C 5.282 290.573,4.971 291.875,4.838 293.421 C 4.698 295.062,4.437 296.118,4.202 296.000 C 3.974 295.886,3.677 296.811,3.509 298.160 C 3.347 299.457,2.942 300.935,2.609 301.442 C 2.274 301.953,2.034 303.112,2.070 304.038 C 2.112 305.112,1.923 305.871,1.544 306.156 C 1.176 306.432,0.912 307.432,0.844 308.800 C 0.785 310.010,0.571 311.060,0.368 311.133 C 0.166 311.207,0.000 313.286,0.000 315.755 L 0.000 320.243 1.661 320.280 C 2.654 320.301,3.450 320.546,3.642 320.889 C 3.850 321.261,4.756 321.494,6.232 321.553 C 7.566 321.607,8.740 321.883,9.080 322.223 C 9.398 322.541,10.407 322.801,11.329 322.801 C 12.290 322.802,13.554 323.141,14.305 323.598 C 15.127 324.100,16.220 324.370,17.260 324.329 C 18.314 324.288,19.072 324.479,19.356 324.856 C 19.634 325.226,20.624 325.485,22.000 325.548 C 23.210 325.603,24.380 325.873,24.600 326.148 C 24.820 326.423,25.990 326.693,27.200 326.748 C 28.694 326.816,29.564 327.062,29.911 327.516 C 30.266 327.979,31.110 328.208,32.669 328.262 C 34.007 328.308,35.045 328.550,35.237 328.860 C 35.425 329.163,36.521 329.432,37.863 329.502 C 39.131 329.569,40.293 329.828,40.447 330.076 C 40.601 330.325,41.778 330.613,43.063 330.716 C 44.446 330.827,45.531 331.128,45.720 331.452 C 45.896 331.753,46.526 332.002,47.120 332.005 C 48.660 332.013,50.026 332.434,49.784 332.825 C 49.560 333.188,51.825 333.718,53.046 333.588 C 54.498 333.433,55.199 333.604,55.100 334.088 C 55.032 334.421,55.827 334.623,57.600 334.723 C 59.294 334.819,60.311 335.067,60.520 335.435 C 60.728 335.803,61.535 336.000,62.837 336.000 C 64.284 336.000,65.071 336.221,65.697 336.805 C 66.350 337.413,67.043 337.592,68.538 337.539 C 69.933 337.490,70.650 337.654,70.973 338.095 C 71.288 338.526,72.107 338.727,73.587 338.739 C 75.109 338.750,75.846 338.938,76.091 339.378 C 76.341 339.824,77.066 340.000,78.648 340.000 C 80.078 340.000,81.069 340.212,81.457 340.600 C 81.787 340.930,82.629 341.233,83.329 341.274 C 84.028 341.314,85.050 341.374,85.600 341.405 C 86.169 341.438,86.553 341.677,86.490 341.961 C 86.430 342.235,86.552 342.353,86.762 342.223 C 86.973 342.093,87.265 342.182,87.412 342.419 C 87.559 342.657,88.209 342.796,88.856 342.729 C 89.562 342.654,90.175 342.836,90.389 343.182 C 90.621 343.557,91.664 343.817,93.373 343.926 C 95.262 344.046,96.000 344.249,96.000 344.647 C 96.000 345.051,96.596 345.200,98.217 345.200 C 99.881 345.200,100.648 345.400,101.292 346.000 C 101.898 346.564,102.704 346.800,104.026 346.800 C 105.236 346.800,106.086 347.021,106.419 347.423 C 106.703 347.766,107.401 348.017,107.968 347.981 C 110.487 347.821,111.600 348.011,111.600 348.600 C 111.600 348.930,111.735 349.179,111.900 349.153 C 113.692 348.870,116.800 349.280,116.800 349.800 C 116.800 350.240,117.308 350.418,118.700 350.468 C 121.815 350.581,121.995 350.608,121.963 350.967 C 121.906 351.596,122.904 351.924,124.925 351.940 C 126.082 351.949,127.056 352.167,127.235 352.457 C 127.413 352.745,128.665 353.030,130.173 353.126 C 132.062 353.246,132.800 353.449,132.800 353.847 C 132.800 354.210,133.270 354.400,134.167 354.400 C 135.908 354.400,136.868 354.766,136.536 355.304 C 136.390 355.539,136.467 355.606,136.711 355.455 C 136.949 355.308,137.265 355.382,137.413 355.621 C 137.561 355.860,138.338 356.025,139.141 355.989 C 141.445 355.884,142.064 355.972,141.818 356.371 C 141.516 356.859,142.589 357.144,144.741 357.148 C 145.754 357.150,146.772 357.412,147.173 357.775 C 147.609 358.170,148.616 358.400,149.912 358.400 C 151.269 358.400,152.068 358.592,152.280 358.971 C 152.490 359.345,153.452 359.583,155.078 359.664 C 157.005 359.759,157.595 359.937,157.733 360.465 C 157.874 361.003,158.384 361.143,160.214 361.143 C 161.607 361.143,162.638 361.338,162.822 361.635 C 162.989 361.906,164.171 362.215,165.448 362.321 C 166.725 362.427,168.015 362.758,168.314 363.057 C 168.810 363.553,169.536 363.690,172.100 363.771 C 172.595 363.787,173.331 364.098,173.736 364.463 C 174.207 364.888,175.128 365.117,176.294 365.099 C 177.582 365.080,178.265 365.274,178.622 365.762 C 178.900 366.142,179.234 366.441,179.364 366.427 C 181.220 366.218,182.800 366.481,182.800 367.000 C 182.800 367.465,183.329 367.600,185.157 367.600 C 186.787 367.600,187.579 367.769,187.725 368.150 C 187.861 368.504,188.817 368.763,190.422 368.879 C 192.060 368.998,193.065 369.274,193.369 369.690 C 193.688 370.126,194.499 370.327,195.987 370.339 C 197.509 370.350,198.246 370.538,198.491 370.978 C 198.746 371.432,199.482 371.600,201.220 371.600 C 203.069 371.600,203.600 371.734,203.600 372.200 C 203.600 372.609,204.013 372.801,204.900 372.804 C 206.942 372.811,209.204 373.269,208.981 373.631 C 208.786 373.946,211.019 374.538,211.815 374.381 C 212.932 374.161,214.388 374.456,214.300 374.884 C 214.233 375.208,214.996 375.418,216.600 375.519 C 217.920 375.601,219.284 375.923,219.631 376.234 C 219.985 376.551,221.086 376.800,222.131 376.800 C 223.471 376.800,224.228 377.028,224.806 377.606 C 225.310 378.110,226.050 378.378,226.782 378.323 C 227.426 378.274,228.279 378.523,228.676 378.877 C 229.155 379.302,230.135 379.518,231.572 379.514 C 233.115 379.510,233.880 379.695,234.216 380.154 C 234.544 380.602,235.311 380.800,236.724 380.800 C 238.071 380.800,238.869 380.993,239.080 381.371 C 239.290 381.746,240.256 381.983,241.900 382.065 C 243.506 382.144,244.400 382.360,244.400 382.667 C 244.400 383.312,245.448 383.593,247.523 383.503 C 248.643 383.454,249.369 383.626,249.596 383.993 C 249.819 384.355,250.891 384.619,252.573 384.726 C 254.462 384.846,255.200 385.049,255.200 385.447 C 255.200 385.851,255.796 386.000,257.417 386.000 C 259.045 386.000,259.851 386.203,260.453 386.763 C 261.013 387.285,261.825 387.518,263.019 387.500 C 263.980 387.486,265.065 387.722,265.431 388.026 C 265.796 388.329,266.703 388.598,267.445 388.624 C 268.187 388.650,269.125 388.970,269.529 389.336 C 270.010 389.771,270.962 390.000,272.289 390.000 C 273.638 390.000,274.385 390.184,274.525 390.550 C 274.660 390.901,275.597 391.161,277.119 391.272 C 278.635 391.381,279.747 391.690,280.178 392.121 C 280.664 392.607,281.422 392.773,282.862 392.710 C 284.406 392.643,284.958 392.782,285.254 393.312 C 285.550 393.840,286.182 394.000,287.977 394.000 C 289.686 394.000,290.376 394.161,290.545 394.600 C 290.711 395.034,291.392 395.200,293.004 395.200 C 294.681 395.200,295.446 395.398,296.092 396.000 C 296.730 396.594,297.504 396.800,299.099 396.800 C 300.318 396.800,301.148 396.961,301.018 397.171 C 300.725 397.644,301.727 397.912,303.968 397.961 C 304.941 397.982,306.035 398.270,306.400 398.600 C 306.809 398.971,307.854 399.200,309.131 399.200 C 310.269 399.200,311.200 399.380,311.200 399.600 C 311.200 399.840,312.758 399.995,315.100 399.987 C 319.350 399.974,320.545 399.318,320.354 397.104 C 320.181 395.103,320.415 393.603,320.884 393.700 C 321.207 393.767,321.419 393.007,321.521 391.417 C 321.605 390.107,321.906 388.847,322.190 388.617 C 322.474 388.388,322.807 387.137,322.930 385.837 C 323.054 384.538,323.386 383.332,323.668 383.158 C 323.972 382.970,324.214 381.906,324.261 380.553 C 324.316 378.948,324.528 378.160,324.970 377.913 C 325.434 377.653,325.600 376.929,325.600 375.168 C 325.600 373.410,325.759 372.714,326.200 372.545 C 326.631 372.379,326.800 371.704,326.800 370.140 C 326.800 368.519,327.003 367.748,327.600 367.108 C 328.194 366.470,328.400 365.696,328.400 364.101 C 328.400 362.771,328.552 362.047,328.800 362.200 C 329.020 362.336,329.216 362.302,329.236 362.124 C 329.256 361.946,329.324 361.104,329.387 360.254 C 329.450 359.404,329.733 358.565,330.015 358.391 C 330.297 358.216,330.613 357.022,330.716 355.737 C 330.827 354.354,331.128 353.269,331.452 353.080 C 331.792 352.881,332.001 352.048,332.001 350.880 C 332.002 349.707,332.303 348.507,332.801 347.690 C 333.319 346.842,333.600 345.675,333.600 344.378 C 333.600 342.966,333.777 342.307,334.200 342.145 C 334.639 341.976,334.800 341.284,334.800 339.557 C 334.800 337.729,334.935 337.200,335.400 337.200 C 335.872 337.200,336.000 336.644,336.000 334.600 C 336.000 332.610,336.134 332.000,336.573 332.000 C 337.292 332.000,337.580 331.076,337.538 328.898 C 337.520 327.962,337.752 326.899,338.053 326.536 C 338.612 325.863,338.663 325.589,338.750 322.800 C 338.783 321.753,338.973 321.235,339.300 321.300 C 339.645 321.369,339.838 320.658,339.923 319.003 C 340.003 317.434,340.245 316.495,340.623 316.283 C 340.940 316.106,341.200 315.438,341.200 314.799 C 341.200 313.524,341.947 311.600,342.441 311.600 C 342.613 311.600,342.747 310.665,342.738 309.523 C 342.728 308.189,342.923 307.295,343.285 307.023 C 343.623 306.769,343.888 305.721,343.948 304.400 C 344.003 303.190,344.273 302.020,344.548 301.800 C 344.823 301.580,345.097 300.410,345.158 299.200 C 345.235 297.652,345.495 296.788,346.033 296.285 C 346.621 295.736,346.778 295.101,346.711 293.550 C 346.645 292.026,346.785 291.440,347.283 291.162 C 347.775 290.886,347.943 290.216,347.943 288.528 C 347.943 286.886,348.115 286.167,348.571 285.912 C 349.026 285.658,349.200 284.941,349.200 283.324 C 349.200 281.835,349.395 280.940,349.783 280.644 C 350.146 280.368,350.411 279.329,350.483 277.901 C 350.560 276.392,350.772 275.602,351.100 275.601 C 351.709 275.600,351.632 275.871,351.838 273.000 C 351.933 271.680,352.241 270.420,352.521 270.200 C 352.802 269.980,353.086 268.990,353.152 268.000 C 353.220 266.978,353.516 266.062,353.836 265.880 C 354.181 265.685,354.401 264.907,354.401 263.880 C 354.402 262.906,354.739 261.648,355.204 260.886 C 355.743 260.003,355.983 258.967,355.936 257.730 C 355.887 256.455,356.060 255.746,356.494 255.428 C 356.927 255.112,357.127 254.294,357.139 252.795 C 357.150 251.306,357.351 250.479,357.778 250.167 C 358.203 249.856,358.400 249.052,358.400 247.627 C 358.400 246.401,358.624 245.318,358.945 244.997 C 359.245 244.698,359.612 243.377,359.761 242.063 C 359.934 240.532,360.241 239.593,360.616 239.449 C 361.039 239.287,361.200 238.559,361.200 236.813 C 361.200 235.136,361.348 234.431,361.684 234.500 C 362.008 234.567,362.215 233.808,362.310 232.200 C 362.397 230.733,362.675 229.627,363.026 229.356 C 363.342 229.112,363.600 228.329,363.600 227.618 C 363.600 226.906,363.968 225.807,364.417 225.176 C 364.983 224.381,365.204 223.519,365.136 222.368 C 365.070 221.240,365.237 220.562,365.659 220.254 C 366.408 219.706,366.400 219.743,366.400 217.000 C 366.400 215.311,366.539 214.800,367.000 214.800 C 367.330 214.800,367.579 214.665,367.553 214.500 C 367.270 212.708,367.680 209.600,368.200 209.600 C 368.645 209.600,368.815 209.084,368.860 207.600 C 368.949 204.632,368.947 204.640,369.662 204.104 C 370.123 203.758,370.328 202.984,370.339 201.542 C 370.348 200.364,370.565 199.345,370.843 199.174 C 371.111 199.008,371.436 197.641,371.565 196.136 C 371.703 194.529,371.965 193.477,372.200 193.587 C 372.427 193.692,372.727 192.758,372.893 191.427 C 373.054 190.137,373.444 188.687,373.760 188.205 C 374.075 187.724,374.333 186.454,374.333 185.384 C 374.333 184.070,374.539 183.288,374.967 182.975 C 375.337 182.704,375.600 181.927,375.600 181.105 C 375.600 180.331,375.870 179.474,376.200 179.200 C 376.591 178.875,376.800 177.985,376.800 176.640 C 376.800 175.073,376.992 174.413,377.600 173.893 C 378.217 173.365,378.400 172.713,378.400 171.047 C 378.400 169.543,378.574 168.819,378.971 168.666 C 379.374 168.512,379.543 167.774,379.543 166.165 C 379.543 164.789,379.738 163.762,380.035 163.578 C 380.306 163.411,380.615 162.229,380.721 160.952 C 380.827 159.675,381.131 158.412,381.397 158.146 C 381.663 157.879,381.992 156.725,382.128 155.580 C 382.263 154.435,382.650 153.078,382.987 152.563 C 383.324 152.049,383.600 150.821,383.600 149.834 C 383.600 148.541,383.796 147.930,384.300 147.648 C 384.685 147.433,384.955 147.154,384.900 147.028 C 384.517 146.155,384.867 142.400,385.332 142.400 C 385.701 142.400,385.891 141.701,385.956 140.107 C 386.024 138.426,386.258 137.619,386.835 137.081 C 387.381 136.573,387.592 135.915,387.526 134.931 C 387.463 133.988,387.652 133.351,388.093 133.029 C 388.571 132.680,388.751 131.949,388.739 130.410 C 388.727 128.858,388.897 128.178,389.361 127.918 C 389.835 127.653,390.000 126.944,390.000 125.180 C 390.000 123.331,390.134 122.800,390.600 122.800 C 391.030 122.800,391.200 122.361,391.200 121.250 C 391.200 119.122,391.627 117.169,392.037 117.423 C 392.392 117.642,392.832 116.235,392.732 115.200 C 392.571 113.532,392.842 112.009,393.284 112.100 C 393.608 112.167,393.818 111.404,393.919 109.800 C 394.001 108.480,394.323 107.116,394.634 106.769 C 394.951 106.415,395.200 105.314,395.200 104.269 C 395.200 102.952,395.429 102.171,395.977 101.623 C 396.555 101.045,396.750 100.307,396.738 98.746 C 396.728 97.444,396.927 96.486,397.261 96.223 C 397.566 95.984,397.849 94.845,397.913 93.600 C 397.982 92.246,398.251 91.229,398.613 90.956 C 398.940 90.708,399.200 89.868,399.200 89.056 C 399.200 88.255,399.380 87.600,399.600 87.600 C 400.318 87.600,400.103 81.325,399.375 81.046 C 399.031 80.914,398.856 80.633,398.986 80.423 C 399.234 80.022,397.050 79.474,395.754 79.612 C 394.361 79.760,393.551 79.603,393.782 79.229 C 394.071 78.761,393.090 78.506,390.853 78.468 C 389.875 78.452,388.804 78.166,388.421 77.819 C 387.991 77.430,386.976 77.200,385.688 77.200 C 384.376 77.200,383.525 77.003,383.320 76.652 C 383.130 76.327,382.044 76.027,380.651 75.915 C 379.072 75.788,378.186 75.518,377.947 75.092 C 377.688 74.629,376.979 74.457,375.328 74.457 C 373.804 74.457,372.961 74.274,372.751 73.898 C 372.550 73.540,371.613 73.305,370.146 73.246 C 368.772 73.190,367.683 72.933,367.427 72.603 C 367.183 72.289,366.057 71.999,364.800 71.926 C 363.375 71.845,362.318 71.544,361.800 71.073 C 361.275 70.595,360.637 70.417,359.945 70.554 C 359.209 70.699,358.671 70.521,358.169 69.966 C 357.752 69.505,357.016 69.201,356.424 69.245 C 354.065 69.419,352.800 69.194,352.800 68.600 C 352.800 68.135,352.271 68.000,350.443 68.000 C 348.716 68.000,348.024 67.839,347.855 67.400 C 347.705 67.009,347.084 66.800,346.072 66.800 C 344.345 66.800,342.000 66.103,342.000 65.589 C 342.000 65.407,340.972 65.257,339.716 65.257 C 338.136 65.257,337.294 65.070,336.988 64.651 C 336.699 64.256,335.716 64.002,334.172 63.922 C 332.537 63.838,331.831 63.645,331.900 63.300 C 331.963 62.983,331.525 62.798,330.700 62.796 C 328.658 62.789,326.396 62.331,326.619 61.969 C 326.814 61.654,324.581 61.062,323.785 61.219 C 322.663 61.440,321.211 61.144,321.300 60.712 C 321.368 60.379,320.573 60.177,318.800 60.077 C 317.106 59.981,316.089 59.733,315.880 59.365 C 315.692 59.032,314.929 58.800,314.023 58.800 C 313.025 58.800,312.405 58.589,312.255 58.200 C 312.094 57.780,311.438 57.600,310.066 57.600 C 308.743 57.600,307.792 57.352,307.135 56.835 C 306.464 56.307,305.562 56.079,304.223 56.099 C 302.852 56.120,302.141 55.934,301.798 55.464 C 301.436 54.970,300.683 54.800,298.856 54.800 C 296.940 54.800,296.400 54.668,296.400 54.200 C 296.400 53.657,294.593 53.385,291.700 53.493 C 291.425 53.503,291.200 53.273,291.200 52.983 C 291.200 52.302,290.237 52.021,288.053 52.062 C 287.007 52.082,286.176 51.884,285.981 51.569 C 285.784 51.251,284.610 50.975,283.027 50.874 C 281.138 50.754,280.400 50.551,280.400 50.153 C 280.400 49.749,279.807 49.600,278.200 49.600 C 276.567 49.600,275.803 49.403,275.236 48.836 C 274.694 48.294,273.936 48.079,272.637 48.099 C 271.418 48.117,270.543 47.891,270.027 47.424 C 269.600 47.038,269.078 46.828,268.866 46.959 C 268.273 47.326,266.021 46.761,266.116 46.269 C 266.167 46.005,265.254 45.771,263.817 45.679 C 262.507 45.595,261.247 45.291,261.017 45.004 C 260.788 44.717,259.584 44.405,258.342 44.311 C 256.954 44.207,255.826 43.883,255.415 43.472 C 254.937 42.994,254.170 42.827,252.738 42.890 C 251.194 42.957,250.642 42.818,250.346 42.288 C 250.050 41.760,249.418 41.600,247.623 41.600 C 245.914 41.600,245.224 41.439,245.055 41.000 C 244.886 40.558,244.188 40.400,242.413 40.400 C 240.494 40.400,240.000 40.272,240.000 39.776 C 240.000 39.433,239.832 39.256,239.628 39.383 C 239.423 39.509,239.142 39.430,239.004 39.207 C 238.866 38.983,237.763 38.800,236.553 38.800 C 235.188 38.800,234.447 38.648,234.600 38.400 C 234.899 37.916,235.105 37.972,232.222 37.759 C 230.914 37.662,229.550 37.317,229.191 36.992 C 228.790 36.629,227.731 36.400,226.456 36.400 C 224.975 36.400,224.308 36.227,224.145 35.800 C 224.015 35.461,223.419 35.200,222.776 35.200 C 221.532 35.200,219.600 34.451,219.600 33.969 C 219.600 33.802,218.580 33.675,217.334 33.686 C 215.681 33.701,214.938 33.529,214.589 33.053 C 214.246 32.584,213.483 32.400,211.876 32.400 C 210.343 32.400,209.538 32.218,209.317 31.823 C 209.105 31.445,208.166 31.203,206.597 31.123 C 205.029 31.042,204.231 30.837,204.290 30.530 C 204.393 29.992,202.809 29.590,200.899 29.668 C 200.182 29.698,199.269 29.425,198.867 29.061 C 198.369 28.610,197.417 28.400,195.869 28.400 C 194.119 28.400,193.600 28.263,193.600 27.800 C 193.600 27.335,193.071 27.200,191.243 27.200 C 189.634 27.200,188.820 27.029,188.679 26.661 C 188.552 26.330,187.492 26.020,185.936 25.859 C 184.541 25.715,183.220 25.373,183.000 25.099 C 182.780 24.824,181.985 24.579,181.234 24.554 C 180.398 24.526,179.654 24.216,179.317 23.754 C 179.014 23.339,178.683 23.045,178.583 23.100 C 177.873 23.488,174.000 23.129,174.000 22.675 C 174.000 22.200,172.966 22.013,169.500 21.860 C 169.115 21.843,168.800 21.609,168.800 21.341 C 168.800 20.695,167.764 20.407,165.754 20.494 C 164.660 20.542,163.880 20.337,163.426 19.883 C 162.953 19.410,162.088 19.200,160.614 19.200 C 159.091 19.200,158.420 19.029,158.255 18.600 C 158.087 18.160,157.393 18.000,155.655 18.000 C 154.034 18.000,153.220 17.829,153.078 17.460 C 152.954 17.137,151.955 16.825,150.594 16.684 C 149.342 16.555,148.007 16.168,147.627 15.825 C 147.192 15.430,146.185 15.200,144.897 15.200 C 143.617 15.200,142.634 14.976,142.257 14.600 C 141.867 14.210,140.876 14.000,139.429 14.000 C 137.714 14.000,137.200 13.862,137.200 13.400 C 137.200 12.971,136.762 12.800,135.661 12.800 C 134.697 12.800,133.778 12.502,133.200 12.000 C 132.530 11.419,131.703 11.200,130.182 11.200 C 128.687 11.200,128.019 11.028,127.855 10.600 C 127.686 10.158,126.987 10.000,125.200 10.000 C 123.413 10.000,122.714 9.842,122.545 9.400 C 122.379 8.968,121.703 8.800,120.129 8.800 C 118.719 8.800,117.730 8.587,117.343 8.200 C 117.013 7.870,116.238 7.600,115.621 7.600 C 113.901 7.600,111.990 7.140,112.212 6.780 C 112.477 6.351,111.398 6.086,109.200 6.040 C 108.210 6.019,107.220 5.766,107.000 5.477 C 106.778 5.186,105.628 4.903,104.419 4.842 C 103.220 4.782,102.050 4.499,101.819 4.214 C 101.589 3.928,100.349 3.580,99.064 3.440 C 97.779 3.299,96.471 2.928,96.158 2.615 C 95.808 2.265,94.796 2.052,93.532 2.062 C 92.052 2.073,91.375 1.899,91.118 1.439 C 90.884 1.022,90.212 0.800,89.180 0.800 C 88.311 0.800,87.600 0.620,87.600 0.400 C 87.600 0.160,86.000 0.000,83.600 0.000 L 79.600 0.000 79.600 1.757 M180.039 164.438 C 180.799 165.101,181.364 165.236,182.742 165.083 C 184.114 164.930,184.621 165.049,185.131 165.644 C 185.624 166.220,186.317 166.400,188.046 166.400 C 189.693 166.400,190.377 166.564,190.545 167.000 C 190.713 167.440,191.407 167.600,193.145 167.600 C 194.882 167.600,195.576 167.760,195.745 168.200 C 195.887 168.571,196.495 168.800,197.337 168.800 C 199.267 168.800,201.223 169.239,200.988 169.620 C 200.726 170.044,201.783 170.295,203.993 170.334 C 205.150 170.354,205.952 170.593,206.256 171.009 C 206.515 171.363,206.834 171.641,206.964 171.627 C 209.027 171.394,211.600 171.686,211.600 172.152 C 211.600 172.539,212.301 172.755,213.951 172.874 C 215.404 172.979,216.551 173.294,216.956 173.699 C 217.391 174.134,218.274 174.349,219.583 174.339 C 220.764 174.330,221.921 174.580,222.467 174.962 C 222.968 175.313,223.974 175.600,224.702 175.600 C 225.509 175.600,226.115 175.834,226.255 176.200 C 226.421 176.631,227.096 176.800,228.660 176.800 C 230.301 176.800,231.050 177.002,231.717 177.623 C 232.300 178.167,233.075 178.425,234.000 178.384 C 234.770 178.350,235.625 178.340,235.900 178.361 C 236.585 178.414,236.532 179.487,235.824 179.882 C 235.437 180.099,235.220 181.020,235.159 182.702 C 235.097 184.406,234.907 185.200,234.561 185.200 C 233.860 185.200,233.507 186.523,233.769 188.172 C 233.926 189.161,233.795 189.748,233.310 190.233 C 232.859 190.683,232.576 191.769,232.469 193.456 C 232.353 195.277,232.150 196.000,231.753 196.000 C 231.349 196.000,231.200 196.596,231.200 198.217 C 231.200 199.881,231.000 200.648,230.400 201.293 C 229.826 201.908,229.618 202.639,229.664 203.873 C 229.708 205.021,229.497 205.850,229.032 206.365 C 228.648 206.789,228.369 207.555,228.411 208.068 C 228.601 210.360,228.387 211.600,227.800 211.600 C 227.470 211.600,227.221 211.735,227.247 211.900 C 227.511 213.572,227.119 216.800,226.652 216.800 C 226.266 216.800,226.021 217.631,225.827 219.608 C 225.671 221.188,225.386 222.315,225.175 222.185 C 224.969 222.057,224.785 222.098,224.767 222.276 C 224.748 222.454,224.660 223.312,224.570 224.182 C 224.480 225.053,224.135 225.916,223.803 226.102 C 223.373 226.343,223.200 227.110,223.200 228.777 C 223.200 230.486,223.039 231.176,222.600 231.345 C 222.191 231.502,222.000 232.142,222.000 233.355 C 222.000 236.085,221.765 236.400,219.729 236.400 C 218.675 236.400,217.697 236.154,217.343 235.800 C 217.013 235.470,216.153 235.200,215.431 235.200 C 213.930 235.200,211.600 234.475,211.600 234.007 C 211.600 233.834,210.668 233.692,209.528 233.692 C 208.203 233.692,207.303 233.487,207.028 233.122 C 206.771 232.781,205.727 232.508,204.419 232.442 C 203.220 232.382,201.875 232.077,201.430 231.766 C 200.986 231.455,199.771 231.200,198.731 231.200 C 197.356 231.200,196.734 231.012,196.453 230.510 C 196.167 229.998,195.473 229.799,193.776 229.740 C 192.402 229.692,191.356 229.452,191.163 229.140 C 190.975 228.836,189.877 228.568,188.529 228.497 C 187.014 228.417,186.105 228.173,185.889 227.788 C 185.677 227.408,184.930 227.200,183.780 227.200 C 182.531 227.200,182.000 227.035,182.000 226.647 C 182.000 226.249,181.268 226.047,179.404 225.928 C 177.514 225.808,176.666 225.569,176.288 225.053 C 175.990 224.645,175.350 224.382,174.785 224.434 C 172.728 224.623,171.201 224.395,171.300 223.912 C 171.368 223.579,170.573 223.377,168.800 223.277 C 167.106 223.181,166.089 222.933,165.880 222.565 C 165.704 222.254,165.119 222.000,164.580 222.000 C 163.713 222.000,163.601 221.827,163.605 220.500 C 163.612 218.588,163.995 217.150,164.425 217.416 C 164.788 217.640,165.318 215.375,165.188 214.154 C 165.034 212.705,165.204 212.001,165.684 212.100 C 166.008 212.167,166.218 211.404,166.319 209.800 C 166.401 208.480,166.723 207.116,167.034 206.769 C 167.364 206.400,167.600 205.293,167.600 204.111 C 167.600 202.777,167.785 202.015,168.141 201.878 C 168.479 201.748,168.768 200.725,168.911 199.152 C 169.050 197.615,169.370 196.465,169.731 196.201 C 170.121 195.916,170.328 195.038,170.339 193.613 C 170.350 192.091,170.538 191.354,170.978 191.109 C 171.424 190.859,171.600 190.134,171.600 188.552 C 171.600 187.122,171.812 186.131,172.200 185.743 C 172.748 185.195,172.889 184.491,172.971 181.900 C 172.987 181.405,173.300 180.667,173.666 180.261 C 174.038 179.849,174.258 179.109,174.164 178.591 C 174.067 178.053,174.285 177.372,174.682 176.975 C 175.141 176.516,175.423 175.444,175.531 173.744 C 175.647 171.923,175.850 171.200,176.247 171.200 C 176.651 171.200,176.800 170.607,176.800 169.000 C 176.800 167.301,176.991 166.609,177.637 165.963 C 178.133 165.467,178.393 164.815,178.274 164.363 C 178.009 163.349,178.830 163.384,180.039 164.438 " stroke="none" fill="#ffffff" fill-rule="evenodd"></path><path id="path4" d="M150.100 16.676 C 150.485 16.776,151.115 16.776,151.500 16.676 C 151.885 16.575,151.570 16.493,150.800 16.493 C 150.030 16.493,149.715 16.575,150.100 16.676 M171.600 21.753 C 171.600 22.093,173.634 22.269,173.833 21.946 C 173.951 21.756,173.497 21.600,172.824 21.600 C 172.151 21.600,171.600 21.669,171.600 21.753 M71.600 31.176 C 71.600 31.849,71.669 32.400,71.753 32.400 C 72.093 32.400,72.269 30.366,71.946 30.167 C 71.756 30.049,71.600 30.503,71.600 31.176 M258.900 44.276 C 259.285 44.376,259.915 44.376,260.300 44.276 C 260.685 44.175,260.370 44.093,259.600 44.093 C 258.830 44.093,258.515 44.175,258.900 44.276 M295.175 53.423 C 295.822 53.546,296.433 53.910,296.534 54.231 C 296.652 54.603,296.696 54.558,296.656 54.108 C 296.612 53.613,296.204 53.370,295.297 53.300 C 294.060 53.205,294.054 53.210,295.175 53.423 M330.708 62.690 C 331.521 62.791,331.913 63.016,331.746 63.288 C 331.583 63.551,331.662 63.609,331.945 63.434 C 332.737 62.944,332.021 62.397,330.676 62.464 L 329.400 62.528 330.708 62.690 M62.493 66.800 C 62.493 67.570,62.575 67.885,62.676 67.500 C 62.776 67.115,62.776 66.485,62.676 66.100 C 62.575 65.715,62.493 66.030,62.493 66.800 M345.700 66.676 C 346.085 66.776,346.715 66.776,347.100 66.676 C 347.485 66.575,347.170 66.493,346.400 66.493 C 345.630 66.493,345.315 66.575,345.700 66.676 M381.799 75.880 C 382.458 75.986,383.147 76.281,383.329 76.536 C 383.553 76.849,383.609 76.805,383.500 76.400 C 383.400 76.031,382.812 75.778,381.969 75.744 C 380.715 75.692,380.701 75.703,381.799 75.880 M48.284 122.400 C 48.169 122.840,48.108 123.200,48.149 123.200 C 48.189 123.200,48.530 122.840,48.907 122.400 C 49.432 121.787,49.463 121.600,49.043 121.600 C 48.741 121.600,48.399 121.960,48.284 122.400 M211.326 172.200 C 211.389 172.820,211.720 173.012,212.803 173.052 C 214.155 173.103,214.159 173.099,212.925 172.929 C 212.182 172.826,211.565 172.471,211.448 172.077 C 211.302 171.587,211.268 171.621,211.326 172.200 M234.956 180.171 C 234.835 180.485,234.816 181.160,234.914 181.671 C 235.052 182.397,235.103 182.323,235.146 181.333 C 235.175 180.637,235.425 179.976,235.700 179.865 C 236.092 179.707,236.089 179.656,235.687 179.632 C 235.406 179.614,235.076 179.857,234.956 180.171 M168.914 199.800 C 168.917 200.900,168.995 201.303,169.087 200.695 C 169.179 200.086,169.177 199.186,169.082 198.695 C 168.987 198.203,168.911 198.700,168.914 199.800 M368.854 208.271 C 368.818 209.114,368.565 209.603,368.100 209.724 C 367.444 209.896,367.445 209.910,368.113 209.954 C 368.954 210.008,369.333 209.221,369.086 207.929 C 368.948 207.205,368.897 207.281,368.854 208.271 M225.750 216.987 C 225.626 217.310,225.617 217.805,225.731 218.087 C 225.844 218.369,225.951 218.208,225.968 217.729 C 225.986 217.250,226.315 216.776,226.700 216.676 C 227.356 216.504,227.355 216.490,226.687 216.446 C 226.296 216.421,225.874 216.664,225.750 216.987 M163.654 220.900 C 163.605 221.897,163.722 221.994,164.900 221.940 C 166.074 221.886,166.095 221.864,165.125 221.716 C 164.408 221.606,163.993 221.259,163.879 220.676 C 163.739 219.954,163.699 219.994,163.654 220.900 M180.475 225.875 C 181.300 225.970,182.031 226.303,182.134 226.630 C 182.252 227.004,182.296 226.960,182.256 226.508 C 182.208 225.968,181.813 225.789,180.597 225.752 L 179.000 225.705 180.475 225.875 M16.556 244.571 C 16.435 244.885,16.416 245.560,16.514 246.071 C 16.652 246.795,16.703 246.719,16.746 245.729 C 16.782 244.886,17.035 244.397,17.500 244.276 C 18.156 244.104,18.155 244.090,17.487 244.046 C 17.096 244.021,16.676 244.257,16.556 244.571 M354.493 264.800 C 354.493 265.570,354.575 265.885,354.676 265.500 C 354.776 265.115,354.776 264.485,354.676 264.100 C 354.575 263.715,354.493 264.030,354.493 264.800 M7.356 280.171 C 7.235 280.485,7.216 281.160,7.314 281.671 C 7.452 282.397,7.503 282.323,7.546 281.333 C 7.575 280.637,7.825 279.976,8.100 279.865 C 8.492 279.707,8.489 279.656,8.087 279.632 C 7.806 279.614,7.476 279.857,7.356 280.171 M116.526 349.800 C 116.589 350.420,116.920 350.612,118.003 350.652 C 119.355 350.703,119.359 350.699,118.125 350.529 C 117.382 350.426,116.765 350.071,116.648 349.677 C 116.502 349.187,116.468 349.221,116.526 349.800 M152.100 359.200 C 152.200 359.569,152.788 359.822,153.631 359.856 C 154.885 359.908,154.899 359.897,153.801 359.720 C 153.142 359.614,152.453 359.319,152.271 359.064 C 152.047 358.751,151.991 358.795,152.100 359.200 M188.500 369.076 C 188.885 369.176,189.515 369.176,189.900 369.076 C 190.285 368.975,189.970 368.893,189.200 368.893 C 188.430 368.893,188.115 368.975,188.500 369.076 M238.900 381.600 C 239.000 381.969,239.588 382.222,240.431 382.256 C 241.685 382.308,241.699 382.297,240.601 382.120 C 239.942 382.014,239.253 381.719,239.071 381.464 C 238.847 381.151,238.791 381.195,238.900 381.600 M322.893 387.200 C 322.893 387.970,322.975 388.285,323.076 387.900 C 323.176 387.515,323.176 386.885,323.076 386.500 C 322.975 386.115,322.893 386.430,322.893 387.200 M275.300 391.476 C 275.685 391.576,276.315 391.576,276.700 391.476 C 277.085 391.375,276.770 391.293,276.000 391.293 C 275.230 391.293,274.915 391.375,275.300 391.476 " stroke="none" fill="#ffffff" fill-rule="evenodd"></path></g></svg>